<svg xmlns="http://www.w3.org/2000/svg" xmlns:xlink="http://www.w3.org/1999/xlink" width="661.485" height="488.686"><defs><linearGradient id="a" x1=".5" y1="1" x2=".5" gradientUnits="objectBoundingBox"><stop offset="0" stop-color="gray" stop-opacity=".251"/><stop offset=".54" stop-color="gray" stop-opacity=".122"/><stop offset="1" stop-color="gray" stop-opacity=".102"/></linearGradient><linearGradient id="b" x1=".5" y1="1" x2=".5" y2="0" xlink:href="#a"/></defs><g data-name="Groupe 76" transform="translate(-.005 -.003)"><path data-name="Tracé 319" d="M43.493 191.541h57.473v78.34h-53.27c-.136.81-.272 1.614-.425 2.424h53.7v63.176a.809.809 0 01-.266-.1q-2.265-.9-4.531-1.909c-.323-.147-.64-.3-.968-.442q-2.265-1.071-4.531-2.265a52.872 52.872 0 01-1.569-.861 94.26 94.26 0 01-22.6-17.591c-.2-.187-.379-.391-.566-.566-.917-1-1.818-2-2.69-3.036-.328-.379-.646-.765-.968-1.133a92.893 92.893 0 01-2.99-3.868c-.147-.2-.283-.391-.425-.566a83.663 83.663 0 01-9.741-17.613c-.079-.187-.153-.391-.227-.566a73.862 73.862 0 01-2.1-6.043c-.261-.855-.515-1.7-.731-2.588-.079-.255-.142-.515-.21-.77-3.183-12.545-3.551-25.582-3.551-38.557v-4.536q.068-7.946.187-15.875.045-2.039.085-4.095.119-5.2.34-10.432c.034-.963.079-1.931.13-2.888q.034-.833.085-1.665.15-3.007.359-5.975z" fill="#1078ad" opacity=".1"/><path data-name="Tracé 320" d="M100.967 104.312H69.438a240 240 0 0116.77-23.073 295.102 295.102 0 0114.759-16.764z" fill="#1078ad" opacity=".1"/><path data-name="Tracé 321" d="M100.966 106.725v82.393H43.674c0-.238.034-.481.057-.719.051-.651.1-1.3.159-1.948.057-.759.13-1.518.2-2.265s.147-1.654.238-2.475.164-1.654.255-2.475.181-1.642.283-2.458.193-1.642.306-2.458c.085-.674.17-1.354.266-2.033.13-.957.266-1.914.408-2.866a2.724 2.724 0 01.068-.43 197.624 197.624 0 014.214-20.683 153.148 153.148 0 017.108-20.955 157.375 157.375 0 0110.695-20.628z" fill="#1078ad" opacity=".1"/><path data-name="Tracé 322" d="M114.695 191.54v78.343h122.762V191.54zm0 80.767v67.283c.7.142 1.393.283 2.09.4.934.181 1.875.345 2.832.487l.566.079c.374.062.753.113 1.133.159.946.136 1.892.238 2.832.328.442.045.9.079 1.348.119l1.093.079a44.5 44.5 0 001.773.1c.362 0 .725.028 1.093.04s.566 0 .861 0h3.149c.487 0 .974 0 1.456-.045h.028a8.675 8.675 0 001.014-.04 2.506 2.506 0 00.289 0 6.825 6.825 0 00.838-.034 1.173 1.173 0 01.193 0c.629-.04 1.263-.091 1.9-.147s1.246-.125 1.886-.193l1.286-.159a112.784 112.784 0 0015.546-3.307c11.457-3.194 22.654-7.663 34.106-10.931 14.793-4.219 31.149-6.3 45.444-1.161v-53.055zm122.762-168V.013a157.745 157.745 0 00-39.882 4.672c-31.087 7.81-59 24.75-82.88 46.384v53.237h6.179v2.418h-6.179v82.393h122.762v-82.392H146.15v-2.424zm157.718-35.228a50.821 50.821 0 01-22.258-6.468c-13.219-7.187-23.787-18.3-35.59-27.666C312.805 15.423 282.392 3.64 251.191.715v103.6h175.235l.436-.459zm15.965-2.832l16.928 18.582V61.36c-5.7.719-10.659 2.39-16.928 4.865zm16.928 290.051v-83.99h-36.1a21.575 21.575 0 00-.306-1.082c.108.362.2.725.3 1.082H251.191v60.732c1.337.991 2.656 2.039 3.964 3.092q2.118 1.733 4.208 3.506l1.4 1.161a90.994 90.994 0 002.039 1.671q2.045 1.648 4.117 3.262 1.036.816 2.084 1.6a284.347 284.347 0 0034.91 22.83c2.73 1.523 5.488 2.99 8.263 4.423q2.769 1.427 5.579 2.8 4.214 2.056 8.5 3.964a311.83 311.83 0 0082.688 24.091q9.5 1.4 19.092 2.209v-51.362h.57zM251.191 106.725v82.393h176.878v-82.393zm0 84.805v78.355h176.878V191.54zM441.797 61.247v26.222l21.6-23.713q-10.737-1.773-21.6-2.509zm0 130.295v78.343h172.029V191.54zm171.423 170.97l.606-90.2H441.797v136.244a309.971 309.971 0 0033.245-.4h.193q7.929-.51 15.784-1.45h.119a290.251 290.251 0 0081.118-21.666m74.758-180.626q-.98-2.265-2.011-4.531a205.662 205.662 0 00-4.021-8.331H627.56v78.338h33.93c-.028-22.195-5.646-44.85-14.476-65.481zm-19.454 67.9v77.59a111.026 111.026 0 0023.445-31.63c6.994-14.436 10.194-30.056 10.46-45.971zm0-103.6V189.1h12.165a221.5 221.5 0 00-12.165-20.389zM510.892 76.623c-.895-.345-1.8-.691-2.7-1.019a244.754 244.754 0 00-29.054-8.733l-33.064 36.28-.646.7.425.459h117.681a251.407 251.407 0 00-52.642-27.683zm56.1 30.1H444.205l-2.413 2.2v80.19h172.034v-38.847a244.94 244.94 0 00-46.837-43.541z" fill="#1078ad" opacity=".1"/><path data-name="Tracé 323" d="M100.966 148.289v40.828H43.674c0-.238.034-.481.057-.719.051-.651.1-1.3.159-1.948.057-.759.13-1.518.2-2.265s.147-1.654.238-2.475.164-1.654.255-2.475.181-1.642.283-2.458.193-1.642.306-2.458c.085-.674.17-1.354.266-2.033.13-.957.266-1.914.408-2.866a2.724 2.724 0 01.068-.43 197.617 197.617 0 014.214-20.683z" fill="#1078ad" opacity=".1"/><path data-name="Tracé 324" d="M43.493 191.541h57.473v78.34h-53.27c-.136.81-.272 1.614-.425 2.424h53.7v63.176a.809.809 0 01-.266-.1q-2.265-.9-4.531-1.909c-.323-.147-.64-.3-.968-.442q-2.265-1.071-4.531-2.265a52.872 52.872 0 01-1.569-.861 94.26 94.26 0 01-22.6-17.591c-.2-.187-.379-.391-.566-.566-.917-1-1.818-2-2.69-3.036-.328-.379-.646-.765-.968-1.133a92.893 92.893 0 01-2.99-3.868c-.147-.2-.283-.391-.425-.566a83.663 83.663 0 01-9.741-17.613c-.079-.187-.153-.391-.227-.566a73.862 73.862 0 01-2.1-6.043c-.261-.855-.515-1.7-.731-2.588-.079-.255-.142-.515-.21-.77-3.183-12.545-3.551-25.582-3.551-38.557v-4.536q.068-7.946.187-15.875.045-2.039.085-4.095.119-5.2.34-10.432c.034-.963.079-1.931.13-2.888q.034-.833.085-1.665.15-3.007.359-5.975z" fill="#1078ad" opacity=".1"/><path data-name="Tracé 325" d="M157.907 118.527v70.59h-43.218v-70.59h6.162v-23.9h25.293v23.9z" fill="#1078ad" opacity=".1"/><path data-name="Rectangle 76" fill="#1078ad" opacity=".1" d="M114.689 191.536h43.213v78.343h-43.213z"/><path data-name="Tracé 326" d="M114.695 272.309h43.21v65.13a111.929 111.929 0 01-15.546 3.3c-.43.062-.855.113-1.286.159-.634.074-1.263.142-1.892.2l-1.9.153h-.193l-.838.045h-.289c-.34 0-.674.04-1.014.045h-.028c-.487 0-.968.034-1.456.045h-4.01a8.94 8.94 0 01-1.1-.045q-.872-.034-1.767-.1l-1.093-.079a49.67 49.67 0 01-1.354-.125q-1.427-.125-2.832-.323l-1.133-.159-.566-.079c-.946-.142-1.886-.3-2.832-.481-.7-.125-1.393-.266-2.09-.414z" fill="#1078ad" opacity=".1"/><path data-name="Rectangle 77" fill="#1078ad" opacity=".1" d="M392.428 110.191h35.635v78.921h-35.635z"/><path data-name="Tracé 327" d="M428.068 191.536v78.349H251.191v-33.794h94.213v19.935h47.024v-64.49z" fill="#1078ad" opacity=".1"/><path data-name="Tracé 328" d="M428.629 356.316a3.2 3.2 0 01-.566-.034v51.4q-9.577-.787-19.086-2.2a312.245 312.245 0 01-82.721-24.07q-11.4-5.142-22.337-11.208a285.383 285.383 0 01-34.9-22.83q-4.18-3.194-8.235-6.53c-1.875-1.552-3.732-3.138-5.624-4.672a108.424 108.424 0 00-3.964-3.1v-60.763h140.767c-.1-.362-.193-.719-.294-1.082.108.363.21.719.3 1.082h36.1v83.967c.186.006.373.023.56.04z" fill="#1078ad" opacity=".1"/><path data-name="Tracé 329" d="M521.006 104.312h-23.22v-7.215h10.4V75.604q1.354.5 2.7 1.019v20.474h10.115z" fill="#1078ad" opacity=".1"/><path data-name="Tracé 330" d="M576.957 189.118h-114.01a.071.071 0 00.034 0h-21.184v-78.921h5.992v58.334h27.377v-34.548h22.626v-27.258h23.221v27.276h22.614v34.547h33.335z" fill="#1078ad" opacity=".1"/><path data-name="Tracé 331" d="M441.797 191.541v78.34h135.165v-78.34zm171.837 170.557l.193-62.015h-36.865v-27.752H441.797v136.224a309.957 309.957 0 0033.245-.4h.193q7.929-.51 15.784-1.45h.119a290.253 290.253 0 0081.118-21.669" fill="#1078ad" opacity=".1"/><path data-name="Tracé 332" d="M629.939 272.309h31.529c-.272 15.909-3.466 31.534-10.46 45.965a110.973 110.973 0 01-23.447 31.631v-49.839h2.379z" fill="#1078ad" opacity=".1"/><path data-name="Tracé 333" d="M661.488 269.885h-31.55v-65.476h17.075c8.83 20.632 14.448 43.286 14.475 65.476z" fill="#1078ad" opacity=".1"/><path data-name="Rectangle 78" fill="#1078ad" opacity=".1" d="M408.977 132.131h19.092v24.744h-19.092z"/><path data-name="Rectangle 79" fill="#1078ad" opacity=".1" d="M408.977 183.42h19.092v5.697h-19.092z"/><path data-name="Rectangle 80" fill="#1078ad" opacity=".1" d="M408.977 191.536h19.092v16.622h-19.092z"/><path data-name="Rectangle 81" fill="#1078ad" opacity=".1" d="M408.977 234.709h19.092v24.744h-19.092z"/><path data-name="Rectangle 82" fill="#1078ad" opacity=".1" d="M408.977 285.997h19.092v24.744h-19.092z"/><path data-name="Tracé 334" d="M428.069 356.276a2.746 2.746 0 01.566.04 3.193 3.193 0 01-.566-.034v5.749h-19.092v-24.745h19.092z" fill="#1078ad" opacity=".1"/><path data-name="Tracé 335" d="M428.069 388.569v19.109q-9.583-.787-19.092-2.2v-16.909z" fill="#1078ad" opacity=".1"/><path data-name="Rectangle 83" fill="#1078ad" opacity=".1" d="M251.191 268.067h81.821v1.818h-81.821z"/><path data-name="Rectangle 84" fill="#1078ad" opacity=".1" d="M251.191 272.303h81.821v6.966h-81.821z"/><path data-name="Rectangle 85" fill="#1078ad" opacity=".1" d="M251.191 302.104h81.821v11.202h-81.821z"/><path data-name="Tracé 336" d="M333.011 336.142v11.2h-64q-4.18-3.183-8.235-6.536c-1.88-1.546-3.738-3.132-5.624-4.667z" fill="#1078ad" opacity=".1"/><path data-name="Tracé 337" d="M333.011 370.174v11.23h-6.757q-11.4-5.142-22.337-11.208z" fill="#1078ad" opacity=".1"/><path data-name="Rectangle 86" fill="#1078ad" opacity=".1" d="M475.041 199.13h16.107v16.107h-16.107z"/><path data-name="Rectangle 87" fill="#1078ad" opacity=".1" d="M126.294 124.083h16.107v16.107h-16.107z"/><path data-name="Rectangle 88" fill="#1078ad" opacity=".1" d="M126.294 161.496h16.107v16.107h-16.107z"/><path data-name="Rectangle 89" fill="#1078ad" opacity=".1" d="M126.294 198.91h16.107v16.107h-16.107z"/><path data-name="Rectangle 90" fill="#1078ad" opacity=".1" d="M126.294 236.317h16.107v16.107h-16.107z"/><path data-name="Rectangle 91" fill="#1078ad" opacity=".1" d="M126.294 273.73h16.107v16.107h-16.107z"/><path data-name="Rectangle 92" fill="#1078ad" opacity=".1" d="M126.294 311.143h16.107v16.107h-16.107z"/><path data-name="Rectangle 93" fill="#1078ad" opacity=".1" d="M536.53 199.13h16.107v16.107H536.53z"/><path data-name="Rectangle 94" fill="#1078ad" opacity=".1" d="M475.041 238.86h16.107v16.107h-16.107z"/><path data-name="Rectangle 95" fill="#1078ad" opacity=".1" d="M536.53 238.86h16.107v16.107H536.53z"/><path data-name="Rectangle 96" fill="#1078ad" opacity=".1" d="M475.041 278.584h16.107v16.107h-16.107z"/><path data-name="Rectangle 97" fill="#1078ad" opacity=".1" d="M536.53 278.584h16.107v16.107H536.53z"/><path data-name="Rectangle 98" fill="#1078ad" opacity=".1" d="M475.041 318.313h16.107v16.107h-16.107z"/><path data-name="Rectangle 99" fill="#1078ad" opacity=".1" d="M536.53 318.313h16.107v16.107H536.53z"/><path data-name="Rectangle 100" fill="#1078ad" opacity=".1" d="M475.041 358.043h16.107v16.107h-16.107z"/><path data-name="Rectangle 101" fill="#1078ad" opacity=".1" d="M536.53 358.043h16.107v16.107H536.53z"/><path data-name="Tracé 338" d="M475.041 408.154v-10.387h16.1v8.909z" fill="#1078ad" opacity=".1"/><path data-name="Tracé 339" d="M45.849 168.972v9.215h55.117v-9.215zm5.488 8.637h-4.531v-8.053h4.531zm5.488 0h-4.531v-8.053h4.531zm5.477 0h-4.531v-8.053h4.531zm5.488 0h-4.531v-8.053h4.531zm5.482 0h-4.531v-8.053h4.531zm5.488 0h-4.531v-8.053h4.531zm5.488 0h-4.529v-8.053h4.531zm5.482 0h-4.531v-8.053h4.531zm5.482 0h-4.531v-8.053h4.531zm5.488 0h-4.531v-8.053h4.531z" fill="#1078ad" opacity=".1"/><path data-name="Tracé 340" d="M45.849 195.795v9.215h55.117v-9.215zm5.488 8.637h-4.531v-8.054h4.531zm5.488 0h-4.531v-8.054h4.531zm5.477 0h-4.531v-8.054h4.531zm5.488 0h-4.531v-8.054h4.531zm5.482 0h-4.531v-8.054h4.531zm5.488 0h-4.531v-8.054h4.531zm5.488 0h-4.529v-8.054h4.531zm5.482 0h-4.531v-8.054h4.531zm5.482 0h-4.531v-8.054h4.531zm5.488 0h-4.531v-8.054h4.531z" fill="#1078ad" opacity=".1"/><path data-name="Tracé 341" d="M45.849 222.623v9.209h55.117v-9.209zm5.488 8.626h-4.531v-8.054h4.531zm5.488 0h-4.531v-8.054h4.531zm5.477 0h-4.531v-8.054h4.531zm5.488 0h-4.531v-8.054h4.531zm5.482 0h-4.531v-8.054h4.531zm5.488 0h-4.531v-8.054h4.531zm5.488 0h-4.529v-8.054h4.531zm5.482 0h-4.531v-8.054h4.531zm5.482 0h-4.531v-8.054h4.531zm5.488 0h-4.531v-8.054h4.531z" fill="#1078ad" opacity=".1"/><path data-name="Tracé 342" d="M45.849 249.445v9.209h55.117v-9.209zm5.488 8.631h-4.531v-8.065h4.531zm5.488 0h-4.531v-8.065h4.531zm5.477 0h-4.531v-8.065h4.531zm5.488 0h-4.531v-8.065h4.531zm5.482 0h-4.531v-8.065h4.531zm5.488 0h-4.531v-8.065h4.531zm5.488 0h-4.529v-8.065h4.531zm5.482 0h-4.531v-8.065h4.531zm5.482 0h-4.531v-8.065h4.531zm5.488 0h-4.531v-8.065h4.531z" fill="#1078ad" opacity=".1"/><path data-name="Tracé 343" d="M46.115 276.256c.215.872.47 1.733.731 2.588v-2h4.531v8.048h-2.43c.068.193.142.391.221.566h51.821v-9.2zm10.761 8.631h-4.531v-8.048h4.531zm5.477 0h-4.531v-8.048h4.531zm5.488 0H63.31v-8.048h4.531zm5.482 0h-4.531v-8.048h4.531zm5.488 0H74.28v-8.048h4.535zm5.488 0h-4.531v-8.048h4.531zm5.482 0H85.25v-8.048h4.531zm5.482 0h-4.531v-8.048h4.531zm5.488 0H96.22v-8.048h4.531z" fill="#1078ad" opacity=".1"/><path data-name="Tracé 344" d="M58.881 303.079c.147.181.283.385.425.566h3v3.868l.968 1.133v-5.024h4.531v8.121h-1.864c.181.187.357.385.566.566h34.451v-9.23zm14.419 8.665h-4.531v-8.087H73.3zm5.488 0h-4.531v-8.087h4.531zm5.488 0h-4.535v-8.087h4.531zm5.482 0h-4.531v-8.087h4.531zm5.482 0h-4.531v-8.087h4.532zm5.488 0h-4.531v-8.087h4.531z" fill="#1078ad" opacity=".1"/><path data-name="Tracé 345" d="M89.118 329.901c.521.294 1.048.566 1.574.855v-.283h4.531v2.554c.328.141.64.294.963.441v-3h4.531v4.9a1.872 1.872 0 00.266.1v-5.567z" fill="#1078ad" opacity=".1"/><path data-name="Tracé 346" d="M462.95 189.118zm-34.887 167.163zm-36.4-85.049c.108.362.2.725.3 1.082a20.244 20.244 0 00-.3-1.087zm71.287-82.11zm-342.076-84.81v2.413h25.3v-2.424zm307.195 251.969zm-36.405-85.049c.108.362.2.725.3 1.082-.09-.362-.19-.724-.301-1.087zm71.287-82.11zm-34.888 167.159zm-36.4-85.049c.108.362.2.725.3 1.082a20.244 20.244 0 00-.3-1.087z" fill="#1078ad" opacity=".1"/><ellipse data-name="Ellipse 31" cx="55.185" cy="8.863" rx="55.185" ry="8.863" transform="translate(443.094 470.962)" fill="#1078ad" opacity=".1"/><ellipse data-name="Ellipse 32" cx="55.185" cy="8.863" rx="55.185" ry="8.863" transform="translate(194.205 462.099)" fill="#1078ad" opacity=".1"/><path data-name="Tracé 347" d="M492.753 366.975a.3.3 0 00-.085-.147c-.844-.833-11.6-16.05-11.6-16.05s-.566-1.7-1.484-3.908a3.883 3.883 0 00.651-1.274 4.39 4.39 0 00.108-.595c0-.062.045-.113.062-.176a4.3 4.3 0 00-.057-2.333 4.028 4.028 0 01-.232.566 9.468 9.468 0 00-.849-1.891c-1.427-2.458-3.466-4.531-4.967-6.927a18.741 18.741 0 01-2.554-12.437v.668a19.377 19.377 0 01.34-2.549 17.7 17.7 0 01.946-2.8c1.348-3.087 3.528-5.777 4.854-8.875a16.82 16.82 0 001.003-3.247 18.179 18.179 0 00.5-5.692 9.069 9.069 0 01-.142 1.354 18.435 18.435 0 00-5.2-12.273c-4.627-4.65-11.27-6.456-17.625-7.408a16.146 16.146 0 01-7.422-2.827 12.9 12.9 0 00-8.45-1.614 13.937 13.937 0 00-8.6 4.253c-3.019 3.319-4.327 8.02-7.85 10.817-2.135 1.7-4.842 2.492-7.329 3.647s-4.837 2.832-5.635 5.312v.091l-.034.091c-.827 2.934.77 5.918 1.6 8.846a35.846 35.846 0 01.968 9.362c.062 3.829.119 7.663.057 11.5a79.61 79.61 0 01-.193 4.531 23.74 23.74 0 00-3.891 1.563c-1.269.827-6.015 5.952-6.015 5.952l-9.283 35.465.125.142-.125.481.47-.108a47.789 47.789 0 009.475 7.963l.4 6.955s.476 6.977 6.892 9.86c.147 2.418.606 12.239-1.518 16.13a18.124 18.124 0 00-2 9.22s.742 5.9-.1 9a14.725 14.725 0 00-.108 6.321v1.866c0 6.281.074 26.409 0 28.686-.108 2.69 0 42.476 0 42.476s-.527 19.884-2.214 25.271-1.263 23.22-1.263 23.22-1.059 21.244 2.684 25.435c0 .187-.034.379-.04.566v.266c-.045 1.614.266 3.33 1.654 3.857a23.7 23.7 0 017.283 5.284c.708.935 4.825 3.262 10.194 2.639a76.757 76.757 0 0110.132-.464s2.118-.385 1.433-3.019a23.583 23.583 0 00-3.273-5.828c.215.057.425.1.623.142l.2.04h.159a2.183 2.183 0 00.261 0h.113a1.938 1.938 0 00.317 0c1.422-.136 6.723 2.333 7.668 3.964s4.282 2.871 6.8 3.183a48.29 48.29 0 008.433-.532 31.071 31.071 0 004.723-.861c.748-.283.906-1.189.691-2.209a5.748 5.748 0 00-1.96-3.307 15.906 15.906 0 01-3.024-3.772l-.238-.38c1.58-1.506 4.435-6.434 5.3-7.453 1.053-1.24-1.7-46.6-1.7-46.6v-22.739l4.219-21.521 2.951-11.389 2.532-17.194s4.429-20.083 3.064-22.054c0-.04-1.133-20.717-2.322-25.684-.515-2.214-.385-7.2-.079-12.046a2.379 2.379 0 00.566-2.481 5.15 5.15 0 00-.328-.844v-.26a39 39 0 017.629-2.594c4.219-.827 3.166-3 3.166-3s.951-1.863 1.58-3 .108-11.185 0-12.012c-.04-.334-.3-2.181-.6-4.276a71.731 71.731 0 015.035-3.291c3.65-2.167 2.829-4.449 2.528-5.044zM437.7 510.562s-3.166 8.076-1.9 10.143-.21 9.741-.21 9.741l-1.059 11.389s-2.951 21.125-1.9 26.092c.827 3.9 1.133 15.535 1.229 20.389a1.414 1.414 0 00-.21.1l-.142.074c.487-1.909.283-5.771-2.135-13.541l-.2-32.1s-.374-37.073 2.554-41.219 3.965-11.185 3.965-11.185-.634 10.155-1.048 12.845 1.056 7.272 1.056 7.272zm-5.9 79.776c-.028.068-.062.136-.085.2l-.159-.2a1.682 1.682 0 00.252 0z" transform="translate(-179.83 -130.38)" fill="url(#a)"/><path data-name="Tracé 348" d="M284.266 472.681c-1.637.629-10.511 1.7-12.992 1.4s-5.765-1.557-6.7-3.2-6.173-4.123-7.578-3.964a5.1 5.1 0 01-1.7-.238 20.91 20.91 0 01-2.832-1.087 5.257 5.257 0 01.062-2.152 3.455 3.455 0 01.125-.419 3.743 3.743 0 011.9-2.118l.2-.1a5.775 5.775 0 011.223-.374c4.451-.855 22.818.861 22.818.861s.515.923 1.223 2.067a15.805 15.805 0 002.99 3.795 5.8 5.8 0 011.931 3.33c.224.999.066 1.919-.67 2.199z" fill="#fff"/><path data-name="Tracé 349" d="M284.266 472.678c-1.637.629-10.506 1.7-12.986 1.4s-5.765-1.563-6.706-3.2-6.168-4.123-7.572-3.965-4.531-1.325-4.531-1.325a4.7 4.7 0 01.929-3.812l2.832 2.01s7.578 2.351 8.982 4.531 3.964 3.4 7.663 3.619c2.764.181 9.113-.895 12.086-1.433.198.98.045 1.898-.697 2.175z" opacity=".1"/><path data-name="Tracé 350" d="M257.155 475.567a75.419 75.419 0 00-10 .47c-5.318.623-9.379-1.7-10.087-2.656a23.631 23.631 0 00-7.187-5.324c-1.376-.532-1.7-2.265-1.637-3.885v-.266a15.863 15.863 0 01.453-3.041l22.037-.47 1.909 2.588.294.4 1.161 1.58s.527.691 1.218 1.7a24.177 24.177 0 013.234 5.867c.695 2.652-1.395 3.037-1.395 3.037z" fill="#fff"/><path data-name="Tracé 351" d="M257.155 475.567a75.429 75.429 0 00-10 .47c-5.312.623-9.379-1.7-10.081-2.656a22.966 22.966 0 00-7.193-5.312c-1.376-.532-1.7-2.265-1.637-3.885 1.574.368 4.882 1.308 6.179 2.945 1.7 2.186 4.74 5.862 9.062 6.094 3.489.187 11.984-.436 15.1-.685.665 2.644-1.43 3.029-1.43 3.029z" opacity=".1"/><path data-name="Tracé 352" d="M254.532 460.876c-.255 1.892-1.042 2.4-1.608 2.515a1.1 1.1 0 01-.419 0 1.393 1.393 0 01-.221-.034s-19.788 4.372-23.787.832a2.779 2.779 0 01-.283-.294 15.864 15.864 0 01.453-3.041l22.037-.47 1.909 2.588a3.743 3.743 0 011.9-2.118z" opacity=".1"/><path data-name="Tracé 353" d="M280.018 463.334c-.442.487-.81.765-1.042.668-1.042-.419-9.583-1.875-12.3-.623s-11.893.2-11.893.2 0-1.087-.051-2.832a5.765 5.765 0 011.223-.374c4.451-.855 22.818.861 22.818.861s.543.955 1.245 2.1z" opacity=".1"/><path data-name="Tracé 354" d="M292.943 335.225l-2.5 17.3-2.911 11.463-4.167 21.665v22.937s2.707 45.637 1.665 46.883-5 8.342-6.043 7.929-9.583-1.875-12.3-.629-11.893.209-11.893.209-.21-17.71-1.252-22.711 1.875-26.256 1.875-26.256l1.042-11.457s1.461-7.714.21-9.8 1.875-10.194 1.875-10.194-1.455-4.593-1.036-7.3 1.036-12.919 1.036-12.919-1.036 7.091-3.93 11.253-2.526 41.468-2.526 41.468l.2 32.282c5.216 17.092 0 15.422 0 15.422s-19.788 4.378-23.787.833-2.854-25.86-2.854-25.86-.413-17.919 1.252-23.334 2.192-25.423 2.192-25.423-.108-40.013 0-42.714c.079-2.265 0-22.546 0-28.884v-1.873l2.39-5.935 28.318-3.545h13.547s20.389 4.791 22.5 6.859a.468.468 0 01.113.125c1.362 1.996-3.016 22.206-3.016 22.206z" fill="#1078ad"/><path data-name="Tracé 355" d="M258.559 426.079s6.23 15 9.169 16.045-9.169-16.045-9.169-16.045z" opacity=".1"/><path data-name="Tracé 356" d="M260.864 448.166s21.034 1.042 20.825 3.336-20.825-3.336-20.825-3.336z" opacity=".1"/><path data-name="Tracé 357" d="M232.722 442.169c.832.787 16.045 2.265 14.793 3.7s-13.542 4.236-13.542 4.236z" opacity=".1"/><path data-name="Tracé 358" d="M230.225 416.287c0 .623 3.126 20 3.964 20.836s7.708 1.665 7.708 1.665z" opacity=".1"/><path data-name="Tracé 359" d="M252.907 151.381c-2.985 3.336-4.276 8.065-7.753 10.885-2.112 1.7-4.786 2.509-7.244 3.664s-4.893 2.917-5.624 5.533c-.816 2.945.759 5.952 1.586 8.9a36.838 36.838 0 01.957 9.418c.057 3.857.119 7.714.051 11.571-.1 6.009-.6 12.3-3.789 17.387 11.514 3.664 23.758 4.163 35.833 4.633a36.163 36.163 0 006.961-.176 59.73 59.73 0 005.93-1.5 45.468 45.468 0 0111.814-1.512 19.834 19.834 0 005.188-.345 5.119 5.119 0 003.743-3.291 6.113 6.113 0 00-.957-4.463c-1.4-2.469-3.4-4.531-4.9-6.966a19.143 19.143 0 01-1.234-17.209c1.337-3.109 3.489-5.816 4.8-8.931a18.837 18.837 0 00-3.788-19.986c-4.57-4.678-11.129-6.49-17.4-7.453a15.809 15.809 0 01-7.329-2.832 12.544 12.544 0 00-8.348-1.62 13.626 13.626 0 00-8.49 4.293z" fill="#3f3d56"/><g data-name="Groupe 73" opacity=".1"><path data-name="Tracé 360" d="M293.645 184.638a18.842 18.842 0 00-1.444 8.644 18.522 18.522 0 011.444-6.139c1.331-3.109 3.483-5.816 4.8-8.931a18.071 18.071 0 001.32-8.223 17.608 17.608 0 01-1.32 5.72c-1.319 3.118-3.469 5.82-4.8 8.929z"/><path data-name="Tracé 361" d="M235.003 189.01c.034 2.22.068 4.446.074 6.666q0-4.588-.074-9.164a36.755 36.755 0 00-.957-9.424 46.694 46.694 0 01-1.7-5.856c-.5 2.775.929 5.59 1.7 8.359a36.583 36.583 0 01.957 9.419z"/><path data-name="Tracé 362" d="M297.008 216.597a19.153 19.153 0 01-5.182.345 45.433 45.433 0 00-11.808 1.484 60.131 60.131 0 01-5.93 1.5 35.774 35.774 0 01-6.966.181c-11.667-.459-23.5-.951-34.672-4.287a19.228 19.228 0 01-1.133 2.152c11.514 3.659 23.758 4.163 35.827 4.633a35.775 35.775 0 006.966-.181 58.581 58.581 0 005.907-1.49 45.435 45.435 0 0111.786-1.5 19.556 19.556 0 005.182-.351 5.123 5.123 0 003.744-3.285 4.5 4.5 0 00-.057-2.356 5.287 5.287 0 01-3.664 3.155z"/></g><path data-name="Tracé 363" d="M280.234 209.885c-.419.94-2.186 9.062-2.605 9.894s-2.707 14.159-2.917 14.906-15.082-3.126-15.082-3.126l-8.954-7.5-9.2-9.158s-.272-8.263 6.507-10.914a10.336 10.336 0 011.416-.442c8.223-1.977 7.4-26.981 7.4-26.981l16.877 7.289s-3.126 14.589-3.019 17.4c.028.946.77 1.535 1.739 1.892a13.747 13.747 0 004.61.5s3.647 5.306 3.228 6.24z" fill="#fbbebe"/><path data-name="Tracé 364" d="M310.448 237.286l2.4.629s1.773 2.7-2.4 5.2a72.218 72.218 0 00-7.606 5.318l-12.318 3.749-2.373-7.448 11.463-8.7z" fill="#1078ad"/><path data-name="Tracé 365" d="M310.448 237.286l2.4.629s1.773 2.7-2.4 5.2a72.218 72.218 0 00-7.606 5.318l-12.318 3.749-2.373-7.448 11.463-8.7z" opacity=".1"/><path data-name="Tracé 366" d="M220.551 244.479l-4.791 4.689s8.643 10 15.291 10.625 10.936-7.606 10.936-7.606l-5.754-9.062z" fill="#1078ad"/><path data-name="Tracé 367" d="M220.551 244.479l-4.791 4.689s8.643 10 15.291 10.625 10.936-7.606 10.936-7.606l-5.754-9.062z" opacity=".1"/><circle data-name="Ellipse 33" cx="16.668" cy="16.668" r="16.668" transform="translate(249.396 159.565)" opacity=".1"/><circle data-name="Ellipse 34" cx="16.668" cy="16.668" r="16.668" transform="translate(249.396 158.314)" fill="#fbbebe"/><path data-name="Tracé 368" d="M295.966 314.91a53.806 53.806 0 00-11.151 2.5c-6.23 2.073-55.049.034-55.729 0v-1.875l2.39-5.935 28.318-3.545h13.547s20.389 4.791 22.5 6.859c.08 1.242.125 1.996.125 1.996z" opacity=".1"/><path data-name="Tracé 369" d="M280.234 209.886c-.419.94-2.186 9.062-2.605 9.894s-2.707 14.159-2.917 14.906-15.082-3.126-15.082-3.126l-8.954-7.5-9.2-9.158s-.272-8.263 6.507-10.914l16.832 19.352 7.578-20.19a13.745 13.745 0 004.61.5s3.65 5.301 3.231 6.236z" opacity=".1"/><path data-name="Tracé 370" d="M264.817 223.959l-17.228-19.822a7.221 7.221 0 00-6.836-.5c-3.857 1.671-8.648 3.024-9.9 3.857s-5.941 5.986-5.941 5.986l13.966 36.535-6.151 24.064s.94 12.3-1.456 16.775a18.411 18.411 0 00-1.982 9.271s.731 5.941-.1 9.062a15.093 15.093 0 00-.108 6.354s49.493 2.084 55.74 0a53.333 53.333 0 0111.151-2.5s-1.133-20.842-2.265-25.843.94-24.064.94-24.064l-1.354-20.423 8.122-20.955s-4.4-13.434-8.988-14.787c0 0-8.331-1.982-10.1-2.917s-6.983-1.773-6.983-1.773l-2.736.918z" fill="#1078ad"/><rect data-name="Rectangle 102" width="39.667" height="60.702" rx="2.94" transform="rotate(3.89 -3399.946 3814.337)" opacity=".1"/><rect data-name="Rectangle 103" width="39.667" height="60.702" rx="2.94" transform="rotate(3.89 -3381.02 3832.09)" fill="#3f3d56"/><path data-name="Rectangle 104" fill="#fff" d="M254.423 242.921l34.48 2.345-3.544 52.108-34.48-2.344z"/><path data-name="Rectangle 105" opacity=".1" d="M257.645 256.594l28.165 1.971-.55 7.85-28.164-1.971z"/><path data-name="Rectangle 106" opacity=".1" d="M280.322 289.457l4.47.304-.278 4.09-4.47-.303z"/><path data-name="Rectangle 107" opacity=".1" d="M257.504 278.332l22.88 1.556-.279 4.09-22.88-1.555z"/><path data-name="Rectangle 108" fill="#3f3d56" d="M260.813 241.698l23.822 1.62-.428 6.288-23.822-1.62z"/><path data-name="Rectangle 109" opacity=".1" d="M260.813 241.698l23.822 1.62-.428 6.288-23.822-1.62z"/><path data-name="Tracé 371" d="M266.896 313.76s-.21 30.844-8.337 48.553c0 0 9.8-23.339 9.8-24.274s5.414-10.732 3.964-13.649-5.427-10.63-5.427-10.63z" opacity=".1"/><path data-name="Tracé 372" d="M267.337 170.813a11.593 11.593 0 011.886-7.765 9.566 9.566 0 007.4 10.081 1.252 1.252 0 01-.357-1.371 41.937 41.937 0 003.364 4.027c1.314 1.155 3.285 1.846 4.831 1.025 2.1-1.133 2.124-4.117 1.58-6.439a30.243 30.243 0 00-6.966-13.296 9.209 9.209 0 00-7.306-3.715 17.973 17.973 0 00-9.441 1.478 25.087 25.087 0 00-4.531 3.166l-7.922 6.471a7.526 7.526 0 00-1.926 2.028 5.55 5.55 0 00-.6 2.124 11.446 11.446 0 005.335 10.8 8.444 8.444 0 015.057-7.929 2.2 2.2 0 01.787 1.637l1.671-2.979a3.279 3.279 0 011.133-1.342c1.031-.566 2.316.1 3.194.9s1.733 1.8 2.911 1.92l.045-4.434" opacity=".1"/><path data-name="Tracé 373" d="M267.338 170.19a11.6 11.6 0 011.886-7.77 9.571 9.571 0 007.4 10.081 1.24 1.24 0 01-.357-1.365 42.645 42.645 0 003.364 4.027c1.314 1.161 3.285 1.846 4.831 1.019 2.1-1.133 2.124-4.117 1.58-6.434a30.243 30.243 0 00-6.96-13.292 11.138 11.138 0 00-3.891-3.024 11.33 11.33 0 00-3.4-.691 17.969 17.969 0 00-9.441 1.473 25.407 25.407 0 00-4.531 3.172l-7.929 6.468a7.449 7.449 0 00-1.926 2.028 5.523 5.523 0 00-.6 2.124 11.44 11.44 0 005.335 10.795 8.456 8.456 0 015.058-7.929 2.215 2.215 0 01.787 1.637l1.665-2.968a3.245 3.245 0 011.133-1.342c1.031-.566 2.316.1 3.194.9s1.733 1.79 2.911 1.92l.045-4.44" fill="#3f3d56"/><path data-name="Tracé 374" d="M275.233 275.322c-1.456-.736-25.525 3.019-25.525 3.019a137.751 137.751 0 00-13.547-2.707c-9.583-1.575-10.194-10.942-10.194-10.942l-1.048-18.752 3.234-2.832 13.853 9.062a44.743 44.743 0 010 5.409 7.63 7.63 0 00-.464 1.7.566.566 0 00.464.51c.94.238 13.751 2.311 13.751 2.311s29.694-2.033 37.1 7.969a7.518 7.518 0 011.308 2.469c1.83 6.833-17.613 3.435-18.932 2.784z" fill="#fbbebe"/><path data-name="Tracé 375" d="M294.178 272.575c-1.133.5-1.835.867-1.835.867s-10.625-.312-16.594-2.475-13.224-1.778-13.224-1.778-24.874-4.282-21.017-9.871a.566.566 0 00.464.51c.94.238 13.751 2.311 13.751 2.311s29.694-2.033 37.1 7.969a7.521 7.521 0 011.355 2.467z" opacity=".1"/><path data-name="Tracé 376" d="M304.503 239.579s1.461 10.313 1.563 11.151.629 10.936 0 12.086-1.563 3.019-1.563 3.019 1.042 2.186-3.126 3.024a42.782 42.782 0 00-9.062 3.33s-10.63-.311-16.566-2.5-13.23-1.773-13.23-1.773-31.574-5.42-18.027-12.035 23.13 2.345 23.13 2.345l15.1-.935s5.63-3.443 7.193-3.126a5.782 5.782 0 003.228-.521l.108-10.942z" fill="#fbbebe"/><path data-name="Tracé 377" d="M227.914 214.264l-3.024-.159-9.164 35.68s9.894-2.5 14.159 0 12.086 3.019 12.086 3.019l-2.917-28.442z" opacity=".1"/><path data-name="Tracé 378" d="M227.914 213.635l-3.024-.159-9.164 35.68s9.894-2.5 14.159 0 12.086 3.019 12.086 3.019l-2.917-28.442z" fill="#1078ad"/><path data-name="Tracé 379" d="M297.218 221.45l4.163.94s10.63 15.291 11.463 16.147-3.964 3.965-5.941 3.965-11.667 1.133-14.482 3.749-1.642-10.551-1.642-10.851 3.494-8.609 3.494-8.609z" opacity=".1"/><path data-name="Tracé 380" d="M297.218 220.827l4.163.934s10.63 15.32 11.463 16.152-3.964 3.964-5.941 3.964-11.667 1.133-14.482 3.749-1.642-10.551-1.642-10.851 3.517-8.637 3.517-8.637z" fill="#1078ad"/><g data-name="Groupe 74" opacity=".1"><path data-name="Tracé 381" d="M269.196 162.471a8.345 8.345 0 01.028-1.3 11.593 11.593 0 00-1.744 4.276v1.58c0 .917 0 1.841-.028 2.758h-.079v.425a2.26 2.26 0 00-.028-.436c-1.133-.181-1.943-1.133-2.786-1.892s-2.163-1.484-3.194-.9a3.247 3.247 0 00-1.133 1.342l-1.682 2.968a2.191 2.191 0 00-.787-1.631 8.444 8.444 0 00-5.057 7.929 11.508 11.508 0 01-5.375-9.022 11.452 11.452 0 005.375 10.268 8.456 8.456 0 015.057-7.929 2.214 2.214 0 01.787 1.637l1.665-2.968a3.245 3.245 0 011.133-1.342c1.031-.566 2.316.1 3.194.9s1.733 1.79 2.911 1.92q0-2.175.045-4.338a11.535 11.535 0 011.698-4.245z"/><path data-name="Tracé 382" d="M267.281 168.174a14.3 14.3 0 01.13-1.133l.062-1.563a11.465 11.465 0 00-.192 2.696z"/><path data-name="Tracé 383" d="M284.464 174.93c-1.546.827-3.517.136-4.831-1.019a41.932 41.932 0 01-3.364-4.027 1.252 1.252 0 00.357 1.371 1.333 1.333 0 01-.328-.085 37.422 37.422 0 003.336 3.964c1.3 1.133 3.285 1.846 4.831 1.019s1.988-2.764 1.852-4.65a3.932 3.932 0 01-1.853 3.427z"/><path data-name="Tracé 384" d="M276.263 171.158a9.628 9.628 0 01-7.057-8.416 9.566 9.566 0 007.419 9.758 1.246 1.246 0 01-.362-1.342z"/></g><path data-name="Tracé 385" d="M891.2 388.783s-2.231-.312-2.231-3.557-1.6-9.322-1.6-9.322-1.382-10.574-3.291-12.25-4.361-11.52-4.361-11.52-.419-5.341-1.274-6.49-2.011-3.964-3.715-7.98-8.8-6.768-8.8-6.768-12.851-7.453-16.492-9.883a5.629 5.629 0 01-.929-.7c-.634-.827-3.4-.844-3.4-.844a55.96 55.96 0 01-.657-5.822v-.612a19.594 19.594 0 008.614-10.659c.068-.215.125-.436.187-.657a1.841 1.841 0 001.133-1 20.023 20.023 0 01.742-2.265 8.4 8.4 0 012.1-1.835c1.8-1.535 2.266-4.112 2.18-6.451-.057-1.9-.362-3.817-.244-5.7a2.238 2.238 0 01.034-.476c.034-.278.074-.566.125-.838.278-1.4.883-2.73 1.223-4.123a5.3 5.3 0 00-.419-4.163c-1.161-1.761-3.579-2.113-5.7-2.265-2.407-.2-4.531.057-6.1-1.943a21.338 21.338 0 00-2.424-2.922c-.317-.295-3.4-2.18-3.4-2.3a13.767 13.767 0 00-9.628-.742c-1.6.464-3.1 1.223-4.729 1.6-3.489.827-7.51-.068-10.478 1.931a12.365 12.365 0 00-3.573 4.689q-1.133 2.163-2.3 4.333a27.878 27.878 0 00-3.053 7.414 12.557 12.557 0 00-.21 1.739v.9a3.111 3.111 0 00.034.566 3.259 3.259 0 00.04.351c.04.119.051.385.085.566s.1.5.17.748a1.147 1.147 0 00.1.317c.034.108.124.379.2.566s.079.2.124.294a5.347 5.347 0 00.289.566c.045.074.079.147.125.221a6.416 6.416 0 00.521.759c1.206 1.512 3 2.475 4.315 3.891v.634a19.387 19.387 0 008.881 15.8c0 .215.028.436.04.657a32.343 32.343 0 01-.062 5.041 2.39 2.39 0 00-1.88-.838 2.694 2.694 0 00-.725.062l-.051-.04v.051c-1.246.306-2.781 1.6-4.248 5.29 0 0-4.463 5.029-7.861 4.82s-12 5.239-12 5.239-8.393 5.443-10.194 10.993a76.848 76.848 0 01-3.619 9.22l-10.4 21.363-1.909 16.99s1.059 7.538.849 8.693 4.355 11.52 4.355 11.52 15.082 26.494 21.244 27.853l.442-.306a3.849 3.849 0 00.832.306l1.269-.889a13.241 13.241 0 01-.1 2.985c-.844 2.622.323 19.692 1.807 23.039s.957 47.239.957 47.239l-.21 3.868a1.643 1.643 0 00.051.34l-.051.917.153.079a10.94 10.94 0 01-.153 3.693 40.939 40.939 0 00-.747 6.5s-4.248 27.117-2.231 32.565 3.721 11.418 3.721 11.418 2.124 6.8.1 7.929-7.748 3.143-6.581 5.969c1.076 2.617 5.159 9.628 5.765 10.653l-.051.566-.833 9.022a11.329 11.329 0 00.957 3.443 5.922 5.922 0 006.054 3.783c.567-.04 1.218-.1 1.858-.187a80.487 80.487 0 0013.757-3.585 5.42 5.42 0 01-1.07-.889 3.11 3.11 0 01-.946-2.265c.091-1.648-2.984-9.469-3.755-11.4l-.175-.431s7.011-7.334 5.845-13.825c0 0-7.759-4.531-5.2-7.023s7.119-9.628 7.119-9.628.21-26.7 0-30.685a33.084 33.084 0 01.391-8.291c.085-.408.187-.81.295-1.212a72.354 72.354 0 0010.681.81q1.96 0 3.965-.079 0 .567.051 1.223c.295 6.615.844 18.219 1.291 22.529.634 6.173 4.14 22.83 4.14 22.83s-6.689 4.287 1.167 14.872c0 0 0 3.829-.521 4.389a47.937 47.937 0 00-1.342 5.533c-.328 1.988-.464 4.01.068 5.052 1.274 2.5 8.92 2.3 8.92 2.3a1.2 1.2 0 01.187-.028 10.913 10.913 0 018.093 2.435c2.906 2.333 13.927 1.314 19.9.566 2.339-.3 3.9-.566 3.9-.566a2.293 2.293 0 00.079-.816c-.062-1.467-1.212-4.684-9-7.555 0 0-7.329-4.927-7.227-9.22h-1.008c.532-.017.906-.017.906-.017s-2.871-10.472-1.7-11.327-2.339-12.46-2.339-12.46-2.01-19.482-2.124-20.842a11.979 11.979 0 01.532-3.455l-.532-10.687s-.1-3.551 0-4.706a22.118 22.118 0 00-.238-3c-.051-.4-.1-.81-.158-1.218 2.747-.7 4.531-1.337 4.531-1.337l-.317-37.181c2.334-4.531 2.764-14.476 2.753-21.521 0-4.531-.2-7.884-.2-7.884l3.189-5.2s.736-6.23-.43-7.595a1.308 1.308 0 01.142-1.784 5.936 5.936 0 01.708-.5.884.884 0 01-.073-.125 5.642 5.642 0 01.708-.5s-1.133-1.756-.119-2.5a36.77 36.77 0 002.447 1.529c-.045.413-.091.651-.091.651l.272-.566 1 .566s5-9.951 4.888-11.412 3.4-7.646 3.4-7.646.425-3.251 2.339-4.61 1.484-11.208 1.484-11.208.532-5.131 1.807-7.221-1.152-4.929-1.152-4.929zm-95.578-4.367l.1 2.373c-.566-.912-.974-1.563-.974-1.563z" transform="translate(-342.947 -125.06)" fill="url(#b)"/><path data-name="Tracé 386" d="M535.766 306.448l-1.223 5.21s-9.8-5.012-11.559-11.355 2.951-8.761 2.951-8.761l9.135 3.862z" fill="#fff"/><path data-name="Tracé 387" d="M535.766 306.448l-1.223 5.21s-9.8-5.012-11.559-11.355 2.951-8.761 2.951-8.761l9.135 3.862z" opacity=".1"/><path data-name="Tracé 388" d="M480.776 483.779s-9.062 3.33-15.291 3.749a5.818 5.818 0 01-5.941-3.761 11.494 11.494 0 01-.94-3.4l.821-8.977.43-4.774 13.236-3.443 1.875 5.737.175.43c.748 1.92 3.772 9.7 3.681 11.327a3.108 3.108 0 00.923 2.265 5.263 5.263 0 001.031.847z" fill="#fff"/><path data-name="Tracé 389" d="M542.647 479.214a2.265 2.265 0 01-.079.816s-19.38 3.228-23.345 0a10.5 10.5 0 00-8.133-2.4s-7.5.2-8.75-2.265c-.521-1.036-.385-3.047-.062-5.023a48.161 48.161 0 011.314-5.5l.3-.238 1.784-1.433 20.887-.617h.159c-.1 4.27 7.085 9.169 7.085 9.169 7.649 2.83 8.777 6.03 8.84 7.491z" fill="#fff"/><path data-name="Tracé 390" d="M542.653 479.209a2.333 2.333 0 01-.085.815s-19.38 3.228-23.339 0a10.5 10.5 0 00-8.139-2.4s-7.5.2-8.756-2.265c-.515-1.036-.385-3.047-.062-5.029 2.888.289 7.448 1.008 9.237 2.73 2.707 2.605 7.295 5.21 10.1 5.42 2.224.145 15.425.564 21.044.729z" opacity=".1"/><path data-name="Tracé 391" d="M480.778 483.782s-9.061 3.33-15.291 3.749a5.818 5.818 0 01-5.941-3.761c2.311.776 5.511 1.586 7.193.844 1.994-.889 9.062-1.456 13.026-1.7a5.155 5.155 0 001.014.866z" opacity=".1"/><path data-name="Tracé 392" d="M494.224 215.391c-7.476-2.905-17.092-12.505-14.691-16.991a10.155 10.155 0 00.934-3.6 32.852 32.852 0 00.068-5.1 69.98 69.98 0 00-1-8.3s23.339.527 21.98 3.964a12.755 12.755 0 00-.351 4.718c.113 1.954.391 4.18.685 6.054.4 2.566.816 4.531.816 4.531s-1.433 2-2.265 2.107 4.55 16.779-6.176 12.617z" fill="#cf6f80"/><path data-name="Tracé 393" d="M475.121 469.316l-.176.193c-6.978-8.438-15.416 2.084-15.416 2.084l-.125-.226.431-4.774 13.236-3.443 1.875 5.737z" opacity=".1"/><path data-name="Tracé 394" d="M526.733 463.146s-5.1-.1-7.816 2.3-15.858.515-15.292 0a1.957 1.957 0 00.294-.867l1.784-1.433 20.887-.618c.08.397.143.618.143.618z" opacity=".1"/><path data-name="Tracé 395" d="M483.803 396.877a15.9 15.9 0 00-.861 2.905 33.269 33.269 0 00-.391 8.246c.21 3.964 0 30.532 0 30.532s-4.48 7.085-6.983 9.583 5.1 6.983 5.1 6.983c1.133 6.462-5.732 13.756-5.732 13.756-6.978-8.439-15.416 2.079-15.416 2.079s-4.587-7.929-5.732-10.761 4.48-4.786 6.457-5.941-.1-7.929-.1-7.929-1.665-5.941-3.647-11.361 2.186-32.4 2.186-32.4a41.882 41.882 0 01.731-6.468 10.96 10.96 0 00.153-3.67c-.034-.414-.074-.753-.1-.991s-.051-.34-.051-.34l.079-.136 2.832-5.278s22.834 7.867 21.475 11.191z" fill="#1078ad"/><path data-name="Tracé 396" d="M526.732 462.524s-5.1-.108-7.816 2.265-15.858.521-15.292 0 .515-4.372.515-4.372c-7.708-10.528-1.133-14.8-1.133-14.8s-3.438-16.566-4.061-22.711c-.436-4.287-.974-15.858-1.263-22.411-.125-2.832-.2-4.786-.2-4.786l6.241-1.24.81-.159 15.189-3.053s.419 2.832.7 5.148a22.6 22.6 0 01.232 2.985c-.1 1.133 0 4.684 0 4.684l.521 10.625a12.25 12.25 0 00-.521 3.438c.108 1.359 2.084 20.734 2.084 20.734s3.438 11.565 2.265 12.4 1.729 11.253 1.729 11.253z" fill="#1078ad"/><path data-name="Tracé 397" d="M501.513 185.386a12.75 12.75 0 00-.351 4.718 19.4 19.4 0 01-20.627-.385 69.93 69.93 0 00-1-8.3s23.338.529 21.978 3.967z" opacity=".1"/><path data-name="Tracé 398" d="M510.523 172.881a19.376 19.376 0 11-38.75.464v-.464a19.381 19.381 0 0138.761 0z" fill="#cf6f80"/><path data-name="Tracé 399" d="M494.224 215.388c-7.476-2.905-17.092-12.505-14.691-16.991a10.155 10.155 0 00.934-3.6l10.234 8.416 6.332 5.193 4.814-12.25c.4 2.566.816 4.531.816 4.531s-1.433 2-2.265 2.107 4.552 16.759-6.174 12.594z" opacity=".1"/><path data-name="Tracé 400" d="M520.689 252.583l-8.546 143.57-11.146.731-28.867-83.249 4.735-98.834 1-20.881 12.833 10.54 6.332 5.193 4.956-12.613 9.214 8.031z" fill="#1078ad"/><path data-name="Tracé 401" d="M483.803 396.877a15.885 15.885 0 00-.861 2.906 82.128 82.128 0 01-23.39-7.3l-.153-.079.051-.912v-.476l2.832-5.278s22.88 7.815 21.521 11.139z" opacity=".1"/><path data-name="Tracé 402" d="M503.914 399.806a57.332 57.332 0 01-6.264.719c-.125-2.832-.2-4.786-.2-4.786l6.275-1.268z" opacity=".1"/><path data-name="Tracé 403" d="M520.452 396.408c-4.027 1.048-10.251 2.226-15.813 1.49l-.079-3.585 15.19-3.053s.402 2.809.702 5.148z" opacity=".1"/><path data-name="Tracé 404" d="M504.537 398.554c-23.221 3.964-44.487-7.4-44.487-7.4l.2-3.851s.527-43.66-.934-47.007-2.6-20.3-1.773-22.886-3.019-41.666-3.019-41.666l-.623-15.858-22.814-9.274 10.194-21.255a76.815 76.815 0 003.545-9.175c1.773-5.522 10-10.942 10-10.942s8.439-5.414 11.774-5.21 7.708-4.791 7.708-4.791c3.228-8.229 6.151-4.531 6.151-4.531a7.284 7.284 0 01-.159 1.218c-1.133 9.033 18.316 37.577 18.593 38.087l1.875 45.116 1.879 57.093z" opacity=".1"/><path data-name="Tracé 405" d="M503.914 398.554c-23.22 3.964-44.493-7.4-44.493-7.4l.21-3.851s.521-43.66-.94-47.007-2.6-20.315-1.767-22.926-3.036-41.649-3.036-41.649l-.629-15.858-22.812-9.271 10.19-21.258a78.009 78.009 0 003.545-9.169c1.773-5.5 10.03-10.931 10.03-10.931s8.439-5.414 11.769-5.21 7.725-4.786 7.725-4.786c3.234-8.229 6.8-4.531 6.8-4.531 0 .4-.34.566-.159 1.218 2.492 8.762 17.693 37.578 17.97 38.087l1.875 45.116 1.835 57.122z" fill="#fff"/><path data-name="Tracé 406" d="M497.655 235.287c-2.5-1.042-15.728-16.147-15.728-16.147v-3.438c-.481-1.133-3.347-.442-5.664.351l1-20.881 1.133.94c2.473 8.756 18.988 38.671 19.259 39.175z" opacity=".1"/><path data-name="Tracé 407" d="M498.285 234.043c-2.5-1.048-15.733-16.147-15.733-16.147v-3.443c-.481-1.133-3.341-.442-5.664.351l.98-20.861 1.133.934c2.497 8.745 19.006 38.654 19.284 39.166z" fill="#fff"/><path data-name="Tracé 408" d="M460.046 309.365c.311 0 16.147-1.665 16.147-1.665s9.588 18.859 8.96 23.441-1.767 8.648-5.624 7.929-20.757.566-20.757.566z" opacity=".1"/><path data-name="Tracé 409" d="M459.421 308.113c.317 0 16.152-1.665 16.152-1.665s9.583 18.888 8.96 23.419-1.773 8.648-5.624 7.929-20.763.567-20.763.567z" fill="#fff"/><path data-name="Tracé 410" d="M471.355 299.284s14.533 7.816 14.844 10.194-7.4-1.042-9.062-1.461a21.6 21.6 0 00-3.336-.521l-11.106.3z" fill="#cf6f80"/><circle data-name="Ellipse 35" cx="1.529" cy="1.529" r="1.529" transform="translate(492.066 233.202)" opacity=".1"/><circle data-name="Ellipse 36" cx="1.529" cy="1.529" r="1.529" transform="translate(492.066 232.579)" fill="#3f3d56"/><circle data-name="Ellipse 37" cx="1.529" cy="1.529" r="1.529" transform="translate(494.881 299.397)" opacity=".1"/><circle data-name="Ellipse 38" cx="1.529" cy="1.529" r="1.529" transform="translate(494.881 298.769)" fill="#3f3d56"/><circle data-name="Ellipse 39" cx="1.529" cy="1.529" r="1.529" transform="translate(493.595 266.3)" opacity=".1"/><circle data-name="Ellipse 40" cx="1.529" cy="1.529" r="1.529" transform="translate(493.595 265.677)" fill="#3f3d56"/><path data-name="Tracé 411" d="M530.374 307.179s1.042 1.563 0 2.265.1 2.5.1 2.5-2.6 1.518-1.456 2.894.419 7.555.419 7.555l-3.126 5.2s.187 3.336.2 7.844c0 7.034-.413 16.923-2.7 21.431l.306 36.989s-10.948 4-20.111 2.781l-1.359-59.353s1.982-33.658 2.713-40.115a67.181 67.181 0 00.521-10.109s-.312-10.1-1.359-14.787c0 0-1.133-20.321-1.246-25.945-.051-2.69.091-10.54.249-18 .176-8.161.374-15.858.374-15.858l-2.067-16.362s2.067-.2 2.69.623a5.951 5.951 0 00.906.7c3.574 2.413 16.181 9.832 16.181 9.832s6.977 2.775 8.648 6.751 2.832 6.8 3.642 7.929 1.252 6.456 1.252 6.456 2.4 9.8 4.276 11.457 3.222 12.194 3.222 12.194l-16.569 13.026s-1.455 21.669-1.767 22.507 6.061 19.595 6.061 19.595z" fill="#fff"/><path data-name="Tracé 412" d="M531.003 307.179s1.036 1.563 0 2.265.1 2.5.1 2.5-2.6 1.518-1.456 2.894.419 7.555.419 7.555l-3.115 5.2s.187 3.336.2 7.844c0 7.034-.413 16.923-2.7 21.431l.312 36.988s-10.948 4-20.111 2.781l-1.359-59.345s1.977-33.658 2.713-40.115a66.6 66.6 0 00.515-10.109s-.312-10.1-1.354-14.787c0 0-1.133-20.321-1.251-25.945-.051-2.69.09-10.54.249-18 .176-8.161.374-15.858.374-15.858l-2.73-16.583s2.73 0 3.358.844a5.379 5.379 0 00.906.7c3.568 2.413 16.175 9.832 16.175 9.832s6.961 2.775 8.66 6.751 2.832 6.8 3.642 7.929 1.252 6.456 1.252 6.456 2.4 9.8 4.276 11.457 3.228 12.194 3.228 12.194l-16.566 13.026s-1.456 21.669-1.773 22.507 6.036 19.588 6.036 19.588z" fill="#fff"/><path data-name="Tracé 413" d="M511.163 217.282l1.5 4.361-7.878 7.929c.176-8.161.374-15.858.374-15.858l-2.73-16.577s2.73 0 3.358.844a5.381 5.381 0 00.906.7l6.694 19.307z" opacity=".1"/><path data-name="Tracé 414" d="M510.523 216.03l1.5 4.355-7.872 7.929c.17-8.161.374-15.858.374-15.858l-2.735-16.582s2.735 0 3.359.844a5.658 5.658 0 00.906.7l6.734 19.324z" fill="#fff"/><path data-name="Tracé 415" d="M510.523 172.881a19.316 19.316 0 01-.951 6.009.8.8 0 01-.612-.147c-.153-5.1-2.656-9.889-5.743-13.961a14.793 14.793 0 00-3.115-3.228 6.1 6.1 0 00-4.225-1.195c-1.7.232-3.2 1.388-4.916 1.535-2.265.187-4.293-1.382-6.541-1.456a6.411 6.411 0 00-4.808 2.231 13.117 13.117 0 00-2.577 4.774 27.967 27.967 0 00-1.439 8.246c-.028 1.586-.181 3.574-1.654 4.151a8.438 8.438 0 00-2.135-6.456l-.034-.04v-.464a19.381 19.381 0 0138.761 0z" opacity=".1"/><path data-name="Tracé 416" d="M499.196 142.11a13.344 13.344 0 00-9.413-.736c-1.569.464-3.047 1.218-4.638 1.6-3.4.821-7.362-.068-10.279 1.92a12.27 12.27 0 00-3.5 4.667l-2.265 4.31a28 28 0 00-3 7.363 9.418 9.418 0 001.444 7.606c1.2 1.518 2.973 2.475 4.276 3.908a8.494 8.494 0 012.13 6.473c1.472-.566 1.62-2.566 1.654-4.151a28.007 28.007 0 011.439-8.246 13.12 13.12 0 012.577-4.774 6.416 6.416 0 014.808-2.237c2.265.079 4.3 1.648 6.541 1.456 1.7-.142 3.205-1.3 4.916-1.529a6.071 6.071 0 014.225 1.2 14.506 14.506 0 013.109 3.228c3.092 4.078 5.6 8.846 5.748 13.961.64.464 1.563-.147 1.88-.872a20.717 20.717 0 01.731-2.265 8.377 8.377 0 012.05-1.829c1.767-1.524 2.209-4.089 2.141-6.417s-.521-4.689-.079-6.977c.266-1.4.867-2.718 1.195-4.106a5.368 5.368 0 00-.408-4.14c-1.133-1.75-3.517-2.1-5.6-2.265-2.362-.2-4.474.057-5.981-1.931a22.143 22.143 0 00-2.379-2.911c-.303-.314-3.322-2.181-3.322-2.306z" fill="#512e4e"/><path data-name="Tracé 417" d="M437.623 261.542l-5.918-10.936-1.875 16.877s1.042 7.5.833 8.648 4.27 11.457 4.27 11.457 14.8 26.364 20.842 27.717l20.389-14.589-5.414-6.875s-1.875-.731-2.345 0c0 0-10.058-17.3-11.095-18.542s-.838-3.755-.838-3.755-1.563-1.665-1.042-3.228-2.99-6.977-2.99-6.977l3.228-3.019z" opacity=".1"/><path data-name="Tracé 418" d="M432.022 249.355l-1.563 1.252-1.875 16.877s1.042 7.5.833 8.648 4.276 11.457 4.276 11.457 14.793 26.364 20.836 27.717l20.422-14.591-5.42-6.875s-1.875-.731-2.345 0c0 0-10.053-17.3-11.095-18.542s-.827-3.753-.827-3.753-1.563-1.665-1.042-3.228-3.024-6.977-3.024-6.977l3.228-3.019z" fill="#fff"/><path data-name="Tracé 419" d="M529.021 315.492c1.133 1.376.419 7.561.419 7.561l-3.126 5.171s.187 3.341.2 7.85l-5.256 1.642a3.126 3.126 0 01-4.055-3.081l.912-29.224 12.261 4.684c-1.042.725.1 2.5.1 2.5s-2.599 1.522-1.455 2.897z" opacity=".1"/><path data-name="Tracé 420" d="M529.643 314.873c1.133 1.371.419 7.555.419 7.555l-3.115 5.177s.187 3.336.2 7.844l-5.352 1.671a3.053 3.053 0 01-3.965-3.007l.912-29.326 12.256 4.7c-1.048.725.1 2.5.1 2.5s-2.599 1.506-1.455 2.886z" fill="#fff"/><path data-name="Tracé 421" d="M533.71 300.926s-.833 5.318-2.917 5.63-3.019 8.6-5.1 8.314-.7-7.714-.629-9.152-2.265-7.4-.521-8.75 7.295 0 7.295 0z" fill="#cf6f80"/><path data-name="Tracé 422" d="M538.115 259.979l3.925-7.929s1.569 6.043 1.569 9.271 2.186 3.545 2.186 3.545 2.4 2.832 1.133 4.9-1.767 7.187-1.767 7.187.414 9.792-1.461 11.146-2.294 4.587-2.294 4.587-3.438 6.145-3.33 7.606-4.791 11.355-4.791 11.355 2.4-12.3-11.565-17.608c0 0-.108-4.168.934-5.312s2.668-1.7 1.648-7.453-.295-12.692-.295-14.079 3.126-10.036 3.126-10.036z" opacity=".1"/><path data-name="Tracé 423" d="M539.86 250.918l3.432 1.133s1.569 6.043 1.569 9.271 2.186 3.545 2.186 3.545 2.4 2.832 1.133 4.9-1.773 7.187-1.773 7.187.419 9.792-1.456 11.146-2.265 4.587-2.265 4.587-3.438 6.145-3.33 7.606-4.8 11.355-4.8 11.355 2.4-12.3-11.565-17.608c0 0-.1-4.168.94-5.312s2.668-1.7 1.648-7.453-.295-12.692-.295-14.079 3.126-10.036 3.126-10.036z" fill="#fff"/><path data-name="Tracé 424" d="M464.037 456.43s5.471-3.438 9.062-.94-9.062.94-9.062.94z" opacity=".1"/><path data-name="Tracé 425" d="M506.559 445.8a11.075 11.075 0 018.909 3.755c4.066 4.377-8.909-3.755-8.909-3.755z" opacity=".1"/><g data-name="Groupe 75" opacity=".1"><path data-name="Tracé 426" d="M513.632 171.91a8.522 8.522 0 00-2.056 1.829 21.158 21.158 0 00-.725 2.265c-.317.731-1.24 1.337-1.886.872-.147-5.1-2.656-9.883-5.743-13.961a14.48 14.48 0 00-3.109-3.222 6.088 6.088 0 00-4.231-1.2c-1.7.232-3.194 1.388-4.91 1.535-2.265.187-4.3-1.382-6.547-1.456a6.389 6.389 0 00-4.8 2.231 13.119 13.119 0 00-2.577 4.774 28 28 0 00-1.438 8.246c-.034 1.58-.181 3.551-1.642 4.14a7.86 7.86 0 010 1.263c1.478-.566 1.625-2.566 1.659-4.151a28.008 28.008 0 011.439-8.246 13.114 13.114 0 012.577-4.774 6.411 6.411 0 014.8-2.237c2.265.079 4.3 1.648 6.547 1.456 1.7-.142 3.206-1.3 4.91-1.529a6.088 6.088 0 014.231 1.2 14.515 14.515 0 013.109 3.228c3.087 4.078 5.6 8.846 5.743 13.961.646.464 1.569-.147 1.886-.872a22 22 0 01.725-2.265 8.4 8.4 0 012.056-1.829c1.767-1.523 2.209-4.089 2.141-6.417v-.215a7.447 7.447 0 01-2.159 5.374z"/><path data-name="Tracé 427" d="M471.814 171.51c-1.3-1.433-3.075-2.4-4.27-3.913a8.218 8.218 0 01-1.648-4.633 8.728 8.728 0 001.648 5.884c1.195 1.518 2.973 2.475 4.27 3.908a8.5 8.5 0 012.141 5.052 8.5 8.5 0 00-2.141-6.298z"/><path data-name="Tracé 428" d="M516.888 154.406c-.334 1.388-.929 2.707-1.2 4.106a13.109 13.109 0 00-.175 2.866 10.991 10.991 0 01.175-1.614c.272-1.4.867-2.719 1.2-4.106a7.113 7.113 0 00.187-2.345 7.89 7.89 0 01-.187 1.093z"/></g><ellipse data-name="Ellipse 41" cx="55.185" cy="8.863" rx="55.185" ry="8.863" transform="translate(20.199 457.375)" fill="#1078ad" opacity=".1"/><path data-name="Rectangle 110" fill="#535461" d="M73.612 296.441h3.551v79.952h-3.551z"/><path data-name="Tracé 429" d="M99.483 376.155l-.227 3.6-.312 5.1-.13 2.118-.317 5.1-.136 2.118-.312 5.1-3.585 57.808a9.787 9.787 0 01-9.77 9.186H66.079a9.781 9.781 0 01-9.77-9.226l-3.585-57.808-.311-5.1-.13-2.118-.323-5.1-.13-2.118-.311-5.1-.227-3.6a5.1 5.1 0 015.063-5.386h38.07a5.1 5.1 0 015.057 5.426z" fill="#3f3d56"/><path data-name="Tracé 430" d="M99.256 379.751l-.317 5.086H51.833l-.317-5.086z" fill="#9d9cb5"/><path data-name="Tracé 431" d="M98.809 386.955l-.311 5.086H52.277l-.317-5.086z" fill="#9d9cb5"/><path data-name="Tracé 432" d="M98.361 394.165l-.311 5.08H52.724l-.317-5.08z" fill="#9d9cb5"/><path data-name="Tracé 433" d="M46.115 326.411c20.683 14.963 29.3 38.365 29.3 38.365s-24.919-.855-45.608-15.818S.49 310.611.49 310.611s24.919.838 45.625 15.8z" fill="#1078ad"/><path data-name="Tracé 434" d="M.49 310.611s25.865 14.357 34.16 26.245 40.74 27.932 40.74 27.932" fill="none" stroke="#535461" stroke-miterlimit="10" stroke-width="2"/><path data-name="Tracé 435" d="M59.441 296.271c11.259 8.138 15.948 20.876 15.948 20.876s-13.592-.464-24.823-8.6-15.948-20.885-15.948-20.885 13.57.464 24.823 8.609z" fill="#1078ad"/><path data-name="Tracé 436" d="M34.618 287.662s14.079 7.816 18.6 14.283 22.173 15.2 22.173 15.2" fill="none" stroke="#535461" stroke-miterlimit="10" stroke-width="2"/><path data-name="Tracé 437" d="M91.746 316.501c-12.93 14.21-15.665 32.781-15.665 32.781s18.231-4.474 31.149-18.69 15.665-32.78 15.665-32.78-18.219 4.479-31.149 18.689z" fill="#1078ad"/><path data-name="Tracé 438" d="M122.907 297.817s-16.843 14.567-21.125 24.6-25.7 26.862-25.7 26.862" fill="none" stroke="#535461" stroke-miterlimit="10" stroke-width="2"/></g></svg>