<svg xmlns="http://www.w3.org/2000/svg" width="62" height="153.125"><path data-name="Tracé 871" d="M37.566 106.671V93.183h9.909a2.308 2.308 0 000-4.616h-9.909v-4.912h5.759a2.308 2.308 0 000-4.616h-5.759v-4.912h9.909a2.308 2.308 0 000-4.616h-9.909v-4.89h5.759a2.308 2.308 0 100-4.616h-5.759v-4.933h9.909a2.308 2.308 0 000-4.616h-9.909v-11.01a12.005 12.005 0 00-24.01 0v66.547a24.942 24.942 0 1024.01.678zM24.862 148.89a20.686 20.686 0 01-6.839-40.229h.233v-67.31a7.22 7.22 0 1114.44 0v67.759a20.686 20.686 0 01-7.834 39.827zm14.461-20.686a13.847 13.847 0 11-18.908-12.874c.445-.169.889-.318 1.355-.445v-65.34h6.585v65.108a13.342 13.342 0 012.266.678 13.847 13.847 0 018.787 12.873zm0-118.083a5.167 5.167 0 11.085 0zm0-7.982a3.085 3.085 0 10.085 0zm19.056 27.948h3.578a6.818 6.818 0 01-1.312 3.623 8.469 8.469 0 01-3.218 2.753 9.443 9.443 0 01-4.235 1.035 9.168 9.168 0 01-7.22-3.028 12.132 12.132 0 01-2.689-8.279v-.635a13.254 13.254 0 011.207-5.78 9.062 9.062 0 013.409-3.917 9.7 9.7 0 015.272-1.4 8.872 8.872 0 016.2 2.244 7.94 7.94 0 012.625 5.8h-3.49a5.23 5.23 0 00-1.63-3.43 5.1 5.1 0 00-3.621-1.4 5.293 5.293 0 00-4.489 2.117 9.74 9.74 0 00-1.588 6.02v.72a9.676 9.676 0 001.5 5.78 5.314 5.314 0 004.531 2.117 5.4 5.4 0 003.536-1.228 4.235 4.235 0 001.757-3.112z" fill="#1078ad"/></svg>