<svg xmlns="http://www.w3.org/2000/svg" width="138.587" height="138.587"><defs><clipPath id="a"><circle data-name="Ellipse 303" cx="69.294" cy="69.294" r="69.294" fill="none"/></clipPath></defs><g data-name="Groupe 144" clip-path="url(#a)"><path data-name="Tracé 873" d="M113.006 95.856V94.62a6.028 6.028 0 000 1.236z" fill="#fbc7b2"/><path data-name="Tracé 875" d="M112.854 92.725v-1.084a7.709 7.709 0 000 1.084z" fill="#fbc7b2"/><path data-name="Tracé 876" d="M113.108 97.736a224.81 224.81 0 01-.356-8.245v-.508c-15.22 14.289-32.42 24.582-42.895 24.582s-27.685-10.327-42.888-24.616a169.5 169.5 0 01-3.572 32.4 69.26 69.26 0 0092.66-1.012 146.829 146.829 0 01-2.946-22.6z" fill="#1078ad"/><path data-name="Tracé 877" d="M113.176 98.768v-1.032l-.1-1.879v-6.874c-15.544 14.289-32.744 24.582-43.219 24.582s-27.685-10.327-42.888-24.616a169.5 169.5 0 01-3.572 32.4 69.412 69.412 0 0023.431 13.544c11.715-1.067 23.9-3.64 31.709-6.772 16.405-6.565 22.364-16.469 34.639-29.353z" fill="#00395a"/><path data-name="Tracé 878" d="M26.969 88.982c15.203 14.286 32.42 24.586 42.883 24.586s27.68-10.327 42.883-24.616a125.925 125.925 0 0024.7-31.252A69.31 69.31 0 001.168 55.529c5.739 11.682 15.254 23.516 25.801 33.453z" fill="#1078ad"/><path data-name="Tracé 879" d="M81.754 25.259a6.772 6.772 0 01-2.675 5.35c-2.776 1.879-9.024 1.185-9.024 1.185s-6.247.694-9.024-1.185a6.772 6.772 0 01-2.675-5.35c-3.386.288-5.079 4.554-2.472 8.922 1.693 2.793 7.026 3.03 10.666 2.827a68.8 68.8 0 016.992 0c3.64.2 9.024 0 10.683-2.827 2.574-4.368.898-8.651-2.471-8.922z" fill="#fff"/><path data-name="Tracé 880" d="M94.607 61.608a38 38 0 01-4.368-3.708c-3.386-3.115-7.4-7.568-12.528-8.126a8.465 8.465 0 00-6.112 1.168c-.9.677-1.236 1.151-1.541 1.337-.322-.186-.66-.66-1.558-1.337a8.465 8.465 0 00-6.112-1.168c-5.079.559-9.108 5.079-12.528 8.126a38.008 38.008 0 01-4.368 3.708c-1.9 1.253-5.367-.711-9.024-.593.659 1.578 8.939 3.178 13.339 9.972 6.146 9.515 17.709 9.091 20.316 8.939 2.523.152 14.086.576 20.316-8.939 4.385-6.772 12.68-8.465 13.324-9.972-3.742-.122-7.246 1.845-9.156.593zm-18.626 4.858a33.1 33.1 0 01-5.942.88 32.878 32.878 0 01-5.942-.88 64.177 64.177 0 01-7.161-2.336c4.673-.593 8.465-4.2 13.1-5.688 4.588 1.49 8.465 5.079 13.087 5.688a62.786 62.786 0 01-7.127 2.336z" fill="#fff"/><path data-name="Tracé 881" d="M94.688 60.219a36.349 36.349 0 01-4.368-3.284c-3.386-2.743-7.4-6.67-12.528-7.161a9.278 9.278 0 00-6.112 1.033c-.948.626-1.27 1.05-1.608 1.2-.322-.152-.643-.576-1.693-1.2a9.244 9.244 0 00-6.112-1.033c-5.078.49-9.109 4.422-12.509 7.161a37.94 37.94 0 01-4.385 3.284c-1.9 1.117-5.367.474-9.024.576a1.693 1.693 0 001.236 1.033c.745.542 1.287.3 1.981.576 2.032.8 4.334.186 6.433.728a25.5 25.5 0 007.381-.271c2.556-.609 4.723-.508 7.28-1.083a23.16 23.16 0 018.634-.339 5.265 5.265 0 00.728 0h.728a23.058 23.058 0 018.617.339c2.556.576 4.723.474 7.28 1.084a25.6 25.6 0 007.4.271c2.1-.542 4.4 0 6.433-.728.694-.271 1.1-.254 1.93-.491.66-.508 1.1-.762 1.27-1.117-3.659-.101-7.045.54-8.992-.578z" fill="#fff"/><path data-name="Tracé 882" d="M100.579 60.829a12.1 12.1 0 01-5.892-.609 36.349 36.349 0 01-4.367-3.285c-3.386-2.743-7.4-6.67-12.528-7.161a9.277 9.277 0 00-6.112 1.032c-.948.626-1.27 1.05-1.608 1.2-.322-.152-.643-.576-1.693-1.2a9.244 9.244 0 00-6.112-1.033c-5.079.491-9.108 4.419-12.511 7.161a37.939 37.939 0 01-4.385 3.284c-1.439.846-3.809.677-6.45.593-.711.237-.576.846.169 1.456a.665.665 0 01.474.135c2.032.8 4.334.186 6.433.728 2.489.169 4.859 2.252 7.178 1.693s4.723-.491 7.28-1.067c2.946-.66 5.841-2.743 8.837-2.319a5.266 5.266 0 00.728 0h.728c3-.423 5.468 1.693 8.465 2.319 2.556.576 4.723.457 7.28 1.067s5.079-1.524 7.6-1.693c2.065-.525 4.334 0 6.349-.694 1.119-.829.865-1.489.137-1.607z" fill="#fff"/><path data-name="Tracé 883" d="M66.838 68.769c-3.267-.152-5.959.457-5.993 1.371s2.573 1.693 5.841 1.9 5.959-.474 5.993-1.371-2.573-1.765-5.841-1.9z" fill="#f37e85" opacity=".75"/><path data-name="Tracé 884" d="M62.132 51.348c-1.439 0-2.624.643-2.624 1.456s1.185 1.439 2.624 1.439 2.624-.643 2.624-1.439-1.185-1.456-2.624-1.456z" fill="#f37e85" opacity=".75"/><path data-name="Tracé 885" d="M75.423 51.348c-1.134 0-2.049.525-2.049 1.151s.914 1.151 2.049 1.151 2.048-.508 2.048-1.151-.914-1.151-2.048-1.151z" fill="#f37e85" opacity=".75"/><path data-name="Tracé 886" d="M79.384 50.772c-.559 0-1.016.254-1.016.576s.457.576 1.016.576 1.033-.254 1.033-.576-.459-.576-1.033-.576z" fill="#f37e85" opacity=".75"/></g></svg>